<?xml version="1.0" encoding="iso-8859-1"?>
<!-- Generator: Adobe Illustrator 19.0.0, SVG Export Plug-In . SVG Version: 6.00 Build 0)  -->
<svg version="1.1" id="Layer_1" xmlns="http://www.w3.org/2000/svg" xmlns:xlink="http://www.w3.org/1999/xlink" x="0px" y="0px"
	 viewBox="0 0 512 512" style="enable-background:new 0 0 512 512;" xml:space="preserve">
<circle style="fill:#242D3C;" cx="256" cy="256" r="256"/>
<path style="fill:#3E4959;" d="M16.258,345.927v-0.479h23.73v23.734H26.335c0.26,0.527,0.521,1.054,0.785,1.579h12.869v22.673
	c0.565,0.887,1.145,1.763,1.721,2.643h23.595v23.73h-6.029c0.441,0.529,0.89,1.053,1.335,1.579h4.694v5.391
	c0.525,0.586,1.045,1.175,1.576,1.756v-7.147h23.737v23.734h-7.15c0.582,0.531,1.173,1.053,1.76,1.579h5.391v4.693
	c0.526,0.446,1.049,0.894,1.579,1.335v-6.029h23.734v23.596c0.879,0.576,1.755,1.155,2.641,1.72h22.668v12.866
	c0.526,0.264,1.054,0.526,1.582,0.786v-13.652h23.73v23.73h-0.47c1.438,0.54,2.882,1.065,4.332,1.579h21.451v6.574
	c0.524,0.135,1.053,0.258,1.579,0.389v-6.964h23.737v11.75c0.523,0.08,1.051,0.144,1.576,0.221v-11.97h23.734v14.322
	c0.525,0.027,1.053,0.044,1.579,0.069v-14.39h23.863v14.39c0.526-0.024,1.054-0.041,1.579-0.069v-14.322h23.734v11.97
	c0.524-0.076,1.052-0.141,1.576-0.221v-11.75h23.737v6.964c0.525-0.132,1.055-0.254,1.579-0.389v-6.574h21.451
	c1.45-0.514,2.895-1.039,4.332-1.579h-0.467v-23.73h23.73v13.65c0.528-0.261,1.056-0.522,1.582-0.786v-12.864h22.665
	c0.887-0.566,1.765-1.146,2.645-1.722v-23.594h23.734v6.026c0.529-0.441,1.053-0.89,1.579-1.335v-4.691h5.387
	c0.587-0.526,1.178-1.048,1.76-1.579h-7.147v-23.734h23.737v7.143c0.53-0.581,1.051-1.17,1.576-1.756v-5.387h4.691
	c0.445-0.526,0.894-1.049,1.335-1.579h-6.026v-23.73h23.592c0.576-0.879,1.155-1.756,1.721-2.643V370.76h12.869
	c0.264-0.525,0.524-1.052,0.785-1.579h-13.654v-23.734h23.73v0.479c0.541-1.441,1.067-2.888,1.582-4.341v-21.451h6.574
	c0.135-0.524,0.258-1.053,0.389-1.579h-6.964v-23.734h11.749c0.08-0.524,0.144-1.054,0.221-1.579h-11.97v-23.73h14.322
	c0.027-0.525,0.044-1.053,0.069-1.579h-14.39v-23.869h14.39c-0.024-0.526-0.041-1.054-0.069-1.579h-14.322v-23.73h11.97
	c-0.077-0.525-0.141-1.055-0.221-1.579h-11.749v-23.734h6.964c-0.132-0.525-0.254-1.055-0.389-1.579h-6.574v-21.451
	c-0.515-1.453-1.042-2.9-1.582-4.341v0.482h-23.73v-23.734h13.655c-0.26-0.527-0.521-1.054-0.785-1.579h-12.871v-22.677
	c-0.565-0.886-1.143-1.761-1.719-2.639h-23.594v-23.73h6.029c-0.441-0.53-0.89-1.053-1.335-1.579h-4.693v-5.391
	c-0.525-0.586-1.045-1.175-1.576-1.756v7.147H421.39V66.884h7.151c-0.582-0.531-1.173-1.053-1.759-1.579h-5.391v-4.694
	c-0.526-0.445-1.049-0.894-1.579-1.335v6.029h-23.734V41.707c-0.88-0.576-1.757-1.156-2.645-1.722h-22.665V27.122
	c-0.526-0.264-1.054-0.526-1.582-0.786v13.65h-23.73v-23.73h0.467c-1.438-0.54-2.882-1.065-4.332-1.579H320.14V8.102
	c-0.524-0.135-1.053-0.258-1.579-0.389v6.964H294.82V2.926c-0.523-0.08-1.051-0.144-1.576-0.221v11.97H269.51V0.354
	c-0.525-0.027-1.053-0.044-1.579-0.069v14.39h-23.863V0.286c-0.526,0.024-1.054,0.041-1.579,0.069v14.322h-23.734V2.706
	c-0.524,0.076-1.052,0.141-1.576,0.221v11.75h-23.737V7.713c-0.525,0.132-1.055,0.254-1.579,0.389v6.574h-21.451
	c-1.45,0.514-2.895,1.039-4.332,1.579h0.47v23.73h-23.73V26.334c-0.528,0.261-1.056,0.522-1.582,0.786v12.866H118.57
	c-0.886,0.565-1.763,1.144-2.641,1.72v23.599H92.196v-6.032c-0.53,0.441-1.053,0.89-1.579,1.335v4.697h-5.394
	c-0.587,0.526-1.177,1.048-1.759,1.579h7.154v23.734H66.88v-7.15c-0.53,0.581-1.051,1.17-1.576,1.756v5.394h-4.697
	c-0.446,0.526-0.894,1.049-1.335,1.579h6.032v23.73H41.707c-0.575,0.878-1.154,1.754-1.719,2.639v22.677h-12.87
	c-0.264,0.525-0.524,1.052-0.785,1.579h13.655v23.734h-23.73v-0.482c-0.541,1.441-1.067,2.888-1.582,4.341v21.451H8.102
	c-0.135,0.524-0.258,1.053-0.389,1.579h6.964v23.734H2.927c-0.08,0.524-0.144,1.054-0.221,1.579h11.97v23.73H0.355
	c-0.027,0.525-0.044,1.053-0.069,1.579h14.39v23.869H0.286c0.024,0.526,0.041,1.054,0.069,1.579h14.322v23.73H2.706
	c0.077,0.525,0.141,1.055,0.221,1.579h11.749v23.734H7.713c0.132,0.525,0.254,1.055,0.389,1.579h6.574v21.451
	C15.192,343.039,15.718,344.486,16.258,345.927z M16.258,343.872v-23.737h23.73v23.737H16.258z M267.931,142.822v23.734h-23.863
	v-23.734H267.931z M244.069,141.243v-23.737h23.863v23.737H244.069z M369.182,267.935h-23.73v-23.869h23.73V267.935z
	 M370.764,244.065h23.73v23.869h-23.73V244.065z M244.069,369.182v-23.734h23.863v23.734H244.069z M267.931,370.761v23.737h-23.863
	v-23.737H267.931z M267.931,218.756v23.73h-23.863v-23.73H267.931z M244.069,217.177v-23.734h23.863v23.734H244.069z
	 M293.244,267.935H269.51v-23.869h23.734L293.244,267.935L293.244,267.935z M294.82,244.065h23.737v23.869H294.82V244.065z
	 M244.069,293.244v-23.73h23.863v23.73H244.069z M267.931,294.823v23.734h-23.863v-23.734H267.931z M242.49,293.244h-23.734v-23.73
	h23.734V293.244z M244.069,267.935v-23.869h23.863v23.869H244.069z M269.51,269.513h23.734v23.73H269.51V269.513z M269.51,242.487
	v-23.73h23.734v23.73H269.51z M242.49,242.487h-23.734v-23.73h23.734V242.487z M242.49,244.065v23.869h-23.734v-23.869
	L242.49,244.065L242.49,244.065z M217.18,267.935h-23.737v-23.869h23.737V267.935z M217.18,269.513v23.73h-23.737v-23.73H217.18z
	 M217.18,294.823v23.734h-23.737v-23.734H217.18z M218.756,294.823h23.734v23.734h-23.734V294.823z M242.49,320.135v23.737h-23.734
	v-23.737H242.49z M244.069,320.135h23.863v23.737h-23.863V320.135z M269.51,320.135h23.734v23.737H269.51V320.135z M269.51,318.557
	v-23.734h23.734v23.734H269.51z M294.82,294.823h23.737v23.734H294.82V294.823z M294.82,293.244v-23.73h23.737v23.73H294.82z
	 M320.135,269.513h23.737v23.73h-23.737V269.513z M320.135,267.935v-23.869h23.737v23.869H320.135z M320.135,242.487v-23.73h23.737
	v23.73H320.135z M318.557,242.487H294.82v-23.73h23.737V242.487z M294.82,217.177v-23.734h23.737v23.734H294.82z M293.244,217.177
	H269.51v-23.734h23.734L293.244,217.177L293.244,217.177z M269.51,191.865v-23.734h23.734v23.734H269.51z M267.931,191.865h-23.863
	v-23.734h23.863V191.865z M242.49,191.865h-23.734v-23.734h23.734V191.865z M242.49,193.443v23.734h-23.734v-23.734H242.49z
	 M217.18,217.177h-23.737v-23.734h23.737V217.177z M217.18,218.756v23.73h-23.737v-23.73H217.18z M191.865,242.487h-23.734v-23.73
	h23.734V242.487z M191.865,244.065v23.869h-23.734v-23.869L191.865,244.065L191.865,244.065z M191.865,269.513v23.73h-23.734v-23.73
	H191.865z M166.552,293.244h-23.73v-23.73h23.73V293.244z M166.552,294.823v23.734h-23.73v-23.734H166.552z M168.131,294.823h23.734
	v23.734h-23.734V294.823z M191.865,320.135v23.737h-23.734v-23.737H191.865z M193.443,320.135h23.737v23.737h-23.737V320.135z
	 M217.18,345.448v23.734h-23.737v-23.734H217.18z M218.756,345.448h23.734v23.734h-23.734V345.448z M269.51,345.448h23.734v23.734
	H269.51V345.448z M294.82,345.448h23.737v23.734H294.82V345.448z M294.82,343.872v-23.737h23.737v23.737H294.82z M320.135,320.135
	h23.737v23.737h-23.737V320.135z M320.135,318.557v-23.734h23.737v23.734H320.135z M345.451,294.823h23.73v23.734h-23.73V294.823z
	 M345.451,293.244v-23.73h23.73v23.73H345.451z M345.451,242.487v-23.73h23.73v23.73H345.451z M345.451,217.177v-23.734h23.73
	v23.734H345.451z M343.872,217.177h-23.737v-23.734h23.737V217.177z M320.135,191.865v-23.734h23.737v23.734H320.135z
	 M318.557,191.865H294.82v-23.734h23.737V191.865z M294.82,166.555v-23.734h23.737v23.734H294.82z M293.244,166.555H269.51v-23.734
	h23.734L293.244,166.555L293.244,166.555z M242.49,166.555h-23.734v-23.734h23.734V166.555z M217.18,166.555h-23.737v-23.734h23.737
	V166.555z M217.18,168.131v23.734h-23.737v-23.734H217.18z M191.865,191.865h-23.734v-23.734h23.734V191.865z M191.865,193.443
	v23.734h-23.734v-23.734H191.865z M166.552,217.177h-23.73v-23.734h23.73V217.177z M166.552,218.756v23.73h-23.73v-23.73H166.552z
	 M166.552,244.065v23.869h-23.73v-23.869L166.552,244.065L166.552,244.065z M141.239,267.935h-23.73v-23.869h23.73V267.935z
	 M141.239,269.513v23.73h-23.73v-23.73H141.239z M141.239,294.823v23.734h-23.73v-23.734H141.239z M141.239,320.135v23.737h-23.73
	v-23.737H141.239z M142.822,320.135h23.73v23.737h-23.73V320.135z M166.552,345.448v23.734h-23.73v-23.734H166.552z
	 M168.131,345.448h23.734v23.734h-23.734V345.448z M191.865,370.761v23.737h-23.734v-23.737H191.865z M193.443,370.761h23.737
	v23.737h-23.737V370.761z M218.756,370.761h23.734v23.737h-23.734V370.761z M242.49,396.077v23.73h-23.734v-23.73H242.49z
	 M244.069,396.077h23.863v23.73h-23.863V396.077z M269.51,396.077h23.734v23.73H269.51V396.077z M269.51,394.498v-23.737h23.734
	v23.737H269.51z M294.82,370.761h23.737v23.737H294.82V370.761z M320.135,370.761h23.737v23.737h-23.737V370.761z M320.135,369.182
	v-23.734h23.737v23.734H320.135z M345.451,345.448h23.73v23.734h-23.73V345.448z M345.451,343.872v-23.737h23.73v23.737H345.451z
	 M370.764,320.135h23.73v23.737h-23.73V320.135z M370.764,318.557v-23.734h23.73v23.734H370.764z M370.764,293.244v-23.73h23.73
	v23.73H370.764z M396.073,269.513h23.734v23.73h-23.734V269.513z M396.073,267.935v-23.869h23.734v23.869H396.073z M396.073,242.487
	v-23.73h23.734v23.73H396.073z M394.494,242.487h-23.73v-23.73h23.73V242.487z M370.764,217.177v-23.734h23.73v23.734H370.764z
	 M370.764,191.865v-23.734h23.73v23.734H370.764z M369.182,191.865h-23.73v-23.734h23.73V191.865z M345.451,166.555v-23.734h23.73
	v23.734H345.451z M343.872,166.555h-23.737v-23.734h23.737V166.555z M320.135,141.243v-23.737h23.737v23.737H320.135z
	 M318.557,141.243H294.82v-23.737h23.737V141.243z M293.244,141.243H269.51v-23.737h23.734L293.244,141.243L293.244,141.243z
	 M269.51,115.927v-23.73h23.734v23.73H269.51z M267.931,115.927h-23.863v-23.73h23.863V115.927z M242.49,115.927h-23.734v-23.73
	h23.734V115.927z M242.49,117.506v23.737h-23.734v-23.737H242.49z M217.18,141.243h-23.737v-23.737h23.737V141.243z
	 M191.865,141.243h-23.734v-23.737h23.734V141.243z M191.865,142.822v23.734h-23.734v-23.734H191.865z M166.552,166.555h-23.73
	v-23.734h23.73V166.555z M166.552,168.131v23.734h-23.73v-23.734H166.552z M141.239,191.865h-23.73v-23.734h23.73V191.865z
	 M141.239,193.443v23.734h-23.73v-23.734H141.239z M141.239,218.756v23.73h-23.73v-23.73H141.239z M115.93,242.487H92.196v-23.73
	h23.734V242.487z M115.93,244.065v23.869H92.196v-23.869L115.93,244.065L115.93,244.065z M115.93,269.513v23.73H92.196v-23.73
	H115.93z M115.93,294.823v23.734H92.196v-23.734H115.93z M115.93,320.135v23.737H92.196v-23.737H115.93z M115.93,345.448v23.734
	H92.196v-23.734H115.93z M117.509,345.448h23.73v23.734h-23.73V345.448z M141.239,370.761v23.737h-23.73v-23.737H141.239z
	 M142.822,370.761h23.73v23.737h-23.73V370.761z M166.552,396.077v23.73h-23.73v-23.73H166.552z M168.131,396.077h23.734v23.73
	h-23.734V396.077z M193.443,396.077h23.737v23.73h-23.737V396.077z M217.18,421.386v23.734h-23.737v-23.734H217.18z
	 M218.756,421.386h23.734v23.734h-23.734V421.386z M244.069,421.386h23.863v23.734h-23.863V421.386z M269.51,421.386h23.734v23.734
	H269.51V421.386z M294.82,421.386h23.737v23.734H294.82V421.386z M294.82,419.807v-23.73h23.737v23.73H294.82z M320.135,396.077
	h23.737v23.73h-23.737V396.077z M345.451,396.077h23.73v23.73h-23.73V396.077z M345.451,394.498v-23.737h23.73v23.737H345.451z
	 M370.764,370.761h23.73v23.737h-23.73V370.761z M370.764,369.182v-23.734h23.73v23.734H370.764z M396.073,345.448h23.734v23.734
	h-23.734V345.448z M396.073,343.872v-23.737h23.734v23.737H396.073z M396.073,318.557v-23.734h23.734v23.734H396.073z
	 M421.386,294.823h23.737v23.734h-23.737V294.823z M421.386,293.244v-23.73h23.737v23.73H421.386z M421.386,267.935v-23.869h23.737
	v23.869H421.386z M421.386,242.487v-23.73h23.737v23.73H421.386z M421.386,217.177v-23.734h23.737v23.734H421.386z M419.807,217.177
	h-23.734v-23.734h23.734V217.177z M396.073,191.865v-23.734h23.734v23.734H396.073z M396.073,166.555v-23.734h23.734v23.734H396.073
	z M394.494,166.555h-23.73v-23.734h23.73V166.555z M370.764,141.243v-23.737h23.73v23.737H370.764z M369.182,141.243h-23.73v-23.737
	h23.73V141.243z M345.451,115.927v-23.73h23.73v23.73H345.451z M343.872,115.927h-23.737v-23.73h23.737V115.927z M318.557,115.927
	H294.82v-23.73h23.737V115.927z M294.82,90.617V66.884h23.737v23.734H294.82V90.617z M293.244,90.617H269.51V66.884h23.734
	L293.244,90.617L293.244,90.617z M267.931,90.617h-23.863V66.884h23.863V90.617z M242.49,90.617h-23.734V66.884h23.734V90.617z
	 M217.18,90.617h-23.737V66.884h23.737V90.617z M217.18,92.196v23.73h-23.737v-23.73H217.18z M191.865,115.927h-23.734v-23.73
	h23.734V115.927z M166.552,115.927h-23.73v-23.73h23.73V115.927z M166.552,117.506v23.737h-23.73v-23.737H166.552z M141.239,141.243
	h-23.73v-23.737h23.73V141.243z M141.239,142.822v23.734h-23.73v-23.734H141.239z M115.93,166.555H92.196v-23.734h23.734V166.555z
	 M115.93,168.131v23.734H92.196v-23.734H115.93z M115.93,193.443v23.734H92.196v-23.734H115.93z M90.617,217.177H66.88v-23.734
	h23.737V217.177z M90.617,218.756v23.73H66.88v-23.73H90.617z M90.617,244.065v23.869H66.88v-23.869L90.617,244.065L90.617,244.065z
	 M90.617,269.513v23.73H66.88v-23.73H90.617z M90.617,294.823v23.734H66.88v-23.734H90.617z M90.617,320.135v23.737H66.88v-23.737
	H90.617z M90.617,345.448v23.734H66.88v-23.734H90.617z M90.617,370.761v23.737H66.88v-23.737H90.617z M92.196,370.761h23.734
	v23.737H92.196V370.761z M115.93,396.077v23.73H92.196v-23.73H115.93z M117.509,396.077h23.73v23.73h-23.73V396.077z
	 M141.239,421.386v23.734h-23.73v-23.734H141.239z M142.822,421.386h23.73v23.734h-23.73V421.386z M168.131,421.386h23.734v23.734
	h-23.734V421.386z M191.865,446.699v23.737h-23.734v-23.737H191.865z M193.443,446.699h23.737v23.737h-23.737V446.699z
	 M218.756,446.699h23.734v23.737h-23.734V446.699z M244.069,446.699h23.863v23.737h-23.863V446.699z M269.51,446.699h23.734v23.737
	H269.51V446.699z M294.82,446.699h23.737v23.737H294.82V446.699z M320.135,446.699h23.737v23.737h-23.737V446.699z M320.135,445.12
	v-23.734h23.737v23.734H320.135z M345.451,421.386h23.73v23.734h-23.73V421.386z M370.764,421.386h23.73v23.734h-23.73V421.386z
	 M370.764,419.807v-23.73h23.73v23.73H370.764z M396.073,396.077h23.734v23.73h-23.734V396.077z M396.073,394.498v-23.737h23.734
	v23.737H396.073z M421.386,370.761h23.737v23.737h-23.737V370.761z M421.386,369.182v-23.734h23.737v23.734H421.386z
	 M421.386,343.872v-23.737h23.737v23.737H421.386z M446.699,320.135h23.734v23.737h-23.734V320.135z M446.699,318.557v-23.734
	h23.734v23.734H446.699z M446.699,293.244v-23.73h23.734v23.73H446.699z M446.699,267.935v-23.869h23.734v23.869H446.699z
	 M446.699,242.487v-23.73h23.734v23.73H446.699z M446.699,217.177v-23.734h23.734v23.734H446.699z M446.699,191.865v-23.734h23.734
	v23.734H446.699z M445.123,191.865h-23.737v-23.734h23.737V191.865z M421.386,166.555v-23.734h23.737v23.734H421.386z
	 M421.386,141.243v-23.737h23.737v23.737H421.386z M419.807,141.243h-23.734v-23.737h23.734V141.243z M396.073,115.927v-23.73
	h23.734v23.73H396.073z M394.494,115.927h-23.73v-23.73h23.73V115.927z M370.764,90.617V66.884h23.73v23.734h-23.73V90.617z
	 M369.182,90.617h-23.73V66.884h23.73V90.617z M343.872,90.617h-23.737V66.884h23.737V90.617z M320.135,65.305v-23.74h23.737v23.74
	H320.135z M318.557,65.305H294.82v-23.74h23.737V65.305z M293.244,65.305H269.51v-23.74h23.734L293.244,65.305L293.244,65.305z
	 M267.931,65.305h-23.863v-23.74h23.863V65.305z M242.49,65.305h-23.734v-23.74h23.734V65.305z M217.18,65.305h-23.737v-23.74
	h23.737V65.305z M191.865,65.305h-23.734v-23.74h23.734V65.305z M191.865,66.884v23.734h-23.734V66.884H191.865z M166.552,90.617
	h-23.73V66.884h23.73V90.617z M141.239,90.617h-23.73V66.884h23.73V90.617z M141.239,92.196v23.73h-23.73v-23.73H141.239z
	 M115.93,115.927H92.196v-23.73h23.734V115.927z M115.93,117.506v23.737H92.196v-23.737H115.93z M90.617,141.243H66.88v-23.737
	h23.737V141.243z M90.617,142.822v23.734H66.88v-23.734H90.617z M90.617,168.131v23.734H66.88v-23.734H90.617z M65.305,191.865
	H41.568v-23.734h23.737V191.865z M65.305,193.443v23.734H41.568v-23.734H65.305z M65.305,218.756v23.73H41.568v-23.73H65.305z
	 M65.305,244.065v23.869H41.568v-23.869L65.305,244.065L65.305,244.065z M65.305,269.513v23.73H41.568v-23.73H65.305z
	 M65.305,294.823v23.734H41.568v-23.734H65.305z M65.305,320.135v23.737H41.568v-23.737H65.305z M41.568,345.448h23.737v23.734
	H41.568V345.448z M41.568,394.498v-23.737h23.737v23.737H41.568z M66.88,419.807v-23.73h23.737v23.73H66.88z M92.196,445.12v-23.734
	h23.734v23.734H92.196z M117.509,470.436v-23.737h23.73v23.737H117.509z M142.822,470.436v-23.737h23.73v23.737H142.822z
	 M168.131,495.745v-23.73h23.734v23.73H168.131z M193.443,495.745v-23.73h23.737v23.73H193.443z M218.756,495.745v-23.73h23.734
	v23.73H218.756z M244.069,495.745v-23.73h23.863v23.73H244.069z M269.51,495.745v-23.73h23.734v23.73H269.51z M294.82,495.745
	v-23.73h23.737v23.73H294.82z M343.872,495.745h-23.737v-23.73h23.737V495.745z M345.451,470.436v-23.737h23.73v23.737H345.451z
	 M394.494,470.436h-23.73v-23.737h23.73V470.436z M419.807,445.12h-23.734v-23.734h23.734V445.12z M445.123,419.807h-23.737v-23.73
	h23.737V419.807z M470.432,394.498h-23.734v-23.737h23.734V394.498z M470.432,369.182h-23.734v-23.734h23.734V369.182z
	 M495.742,343.872h-23.73v-23.737h23.73V343.872z M495.742,318.557h-23.73v-23.734h23.73V318.557z M495.742,293.244h-23.73v-23.73
	h23.73V293.244z M495.742,267.935h-23.73v-23.869h23.73V267.935z M495.742,242.487h-23.73v-23.73h23.73V242.487z M495.742,217.177
	h-23.73v-23.734h23.73V217.177z M495.742,168.131v23.734h-23.73v-23.734H495.742z M470.432,166.555h-23.734v-23.734h23.734V166.555z
	 M470.432,117.506v23.737h-23.734v-23.737H470.432z M445.123,92.196v23.73h-23.737v-23.73H445.123z M419.807,66.884v23.734h-23.734
	V66.884H419.807z M394.494,41.565v23.74h-23.73v-23.74C370.764,41.565,394.494,41.565,394.494,41.565z M369.182,41.565v23.74h-23.73
	v-23.74C345.452,41.565,369.182,41.565,369.182,41.565z M343.872,16.255v23.73h-23.737v-23.73
	C320.135,16.255,343.872,16.255,343.872,16.255z M318.557,16.255v23.73H294.82v-23.73C294.82,16.255,318.557,16.255,318.557,16.255z
	 M293.244,16.255v23.73H269.51v-23.73C269.51,16.255,293.244,16.255,293.244,16.255z M267.931,16.255v23.73h-23.863v-23.73
	C244.068,16.255,267.931,16.255,267.931,16.255z M242.49,16.255v23.73h-23.734v-23.73C218.756,16.255,242.49,16.255,242.49,16.255z
	 M217.18,16.255v23.73h-23.737v-23.73C193.443,16.255,217.18,16.255,217.18,16.255z M168.131,16.255h23.734v23.73h-23.734V16.255z
	 M166.552,41.565v23.74h-23.73v-23.74C142.822,41.565,166.552,41.565,166.552,41.565z M117.509,41.565h23.73v23.74h-23.73V41.565z
	 M92.196,66.884h23.734v23.734H92.196V66.884z M66.88,92.196h23.737v23.73H66.88V92.196z M41.568,117.506h23.737v23.737H41.568
	V117.506z M41.568,142.822h23.737v23.734H41.568V142.822z M16.258,168.131h23.73v23.734h-23.73V168.131z M16.258,193.443h23.73
	v23.734h-23.73V193.443z M16.258,218.756h23.73v23.73h-23.73V218.756z M16.258,244.065h23.73v23.869h-23.73V244.065z
	 M16.258,269.513h23.73v23.73h-23.73V269.513z M16.258,294.823h23.73v23.734h-23.73V294.823z"/>
<rect x="39.857" y="141.34" style="fill:#FFFFFF;" width="1.833" height="128.66"/>
<rect x="31.625" y="153.84" style="fill:#21D8DE;" width="18.303" height="73.16"/>
<rect x="65.17" y="235.95" style="fill:#FFFFFF;" width="1.827" height="91.02"/>
<rect x="56.934" y="252.61" style="fill:#FF6D3B;" width="18.31" height="44.554"/>
<rect x="90.49" y="307.79" style="fill:#FFFFFF;" width="1.827" height="44.29"/>
<rect x="82.25" y="312.62" style="fill:#FF6D3B;" width="18.306" height="32.438"/>
<rect x="115.79" y="312.62" style="fill:#FFFFFF;" width="1.846" height="12.985"/>
<rect x="107.57" y="315.66" style="fill:#FF6D3B;" width="18.297" height="4.846"/>
<rect x="141.12" y="315.66" style="fill:#FFFFFF;" width="1.833" height="123.48"/>
<rect x="132.88" y="321" style="fill:#FF6D3B;" width="18.306" height="73.39"/>
<rect x="166.43" y="387.16" style="fill:#FFFFFF;" width="1.833" height="44.09"/>
<rect x="158.19" y="390.22" style="fill:#FF6D3B;" width="18.306" height="11.238"/>
<rect x="191.74" y="359.92" style="fill:#FFFFFF;" width="1.843" height="57.962"/>
<rect x="183.51" y="376.5" style="fill:#21D8DE;" width="18.29" height="31.27"/>
<rect x="217.06" y="164.4" style="fill:#FFFFFF;" width="1.823" height="232.33"/>
<rect x="208.81" y="254.75" style="fill:#21D8DE;" width="18.31" height="141.21"/>
<rect x="242.37" y="187.43" style="fill:#FFFFFF;" width="1.823" height="132.01"/>
<rect x="234.13" y="195.55" style="fill:#21D8DE;" width="18.303" height="111.82"/>
<rect x="267.81" y="244.9" style="fill:#FFFFFF;" width="1.84" height="65.761"/>
<rect x="259.57" y="244.9" style="fill:#FF6D3B;" width="18.303" height="35.952"/>
<rect x="293.11" y="250.36" style="fill:#FFFFFF;" width="1.84" height="57.03"/>
<rect x="284.88" y="254.74" style="fill:#FF6D3B;" width="18.31" height="46.06"/>
<rect x="318.43" y="185.46" style="fill:#FFFFFF;" width="1.827" height="108.78"/>
<rect x="310.19" y="202.12" style="fill:#21D8DE;" width="18.306" height="80.7"/>
<rect x="14.551" y="234.56" style="fill:#FFFFFF;" width="1.827" height="99.17"/>
<rect x="6.312" y="251.62" style="fill:#21D8DE;" width="18.306" height="72.21"/>
<rect x="343.74" y="166.61" style="fill:#FFFFFF;" width="1.833" height="76.52"/>
<rect x="335.5" y="183.28" style="fill:#21D8DE;" width="18.306" height="30.01"/>
<rect x="369.04" y="171.87" style="fill:#FFFFFF;" width="1.846" height="28.735"/>
<rect x="360.82" y="179.09" style="fill:#21D8DE;" width="18.303" height="16.453"/>
<rect x="394.37" y="104.37" style="fill:#FFFFFF;" width="1.83" height="110.93"/>
<rect x="386.13" y="130.47" style="fill:#21D8DE;" width="18.31" height="76.04"/>
<rect x="419.69" y="153.89" style="fill:#FFFFFF;" width="1.827" height="63.13"/>
<rect x="411.45" y="164.4" style="fill:#FF6D3B;" width="18.303" height="22.822"/>
<rect x="444.99" y="207.83" style="fill:#FFFFFF;" width="1.843" height="24.751"/>
<rect x="436.76" y="211.97" style="fill:#FF6D3B;" width="18.29" height="11.205"/>
<rect x="470.31" y="195.55" style="fill:#FFFFFF;" width="1.82" height="123.8"/>
<rect x="462.07" y="200.15" style="fill:#21D8DE;" width="18.303" height="88.01"/>
<rect x="495.63" y="135.74" style="fill:#E6E5E5;" width="1.82" height="106.73"/>
<rect x="487.38" y="153.89" style="fill:#21D8DE;" width="18.313" height="56.4"/>
<g>
</g>
<g>
</g>
<g>
</g>
<g>
</g>
<g>
</g>
<g>
</g>
<g>
</g>
<g>
</g>
<g>
</g>
<g>
</g>
<g>
</g>
<g>
</g>
<g>
</g>
<g>
</g>
<g>
</g>
</svg>
